<svg version="1.1" id="Layer_1" xmlns="http://www.w3.org/2000/svg" xmlns:xlink="http://www.w3.org/1999/xlink" x="0px" y="0px"
	 width="100%" viewBox="0 0 1024 1024" enable-background="new 0 0 1024 1024" xml:space="preserve">
<path fill="#000000" opacity="1.000000" stroke="none" 
	d="
M552.468628,1025.000000 
	C551.785278,1022.616150 553.532227,1022.275513 555.211975,1022.102966 
	C557.527466,1021.865234 559.864197,1021.727478 562.191528,1021.731079 
	C571.936340,1021.746155 581.368896,1019.549683 590.931030,1018.144592 
	C596.114319,1017.382996 601.327209,1016.571289 606.435120,1015.525940 
	C614.421509,1013.891357 622.472412,1012.535522 630.352722,1010.282043 
	C635.848083,1008.710449 641.423279,1007.169189 646.992554,1006.036194 
	C654.959656,1004.415283 662.517639,1001.586060 670.191589,999.212402 
	C685.631775,994.436462 700.636719,988.363770 715.424500,981.792969 
	C732.723328,974.106506 749.635742,965.596741 766.084717,956.295288 
	C778.346558,949.361450 789.988281,941.280273 801.616333,933.288452 
	C818.011108,922.020508 833.416870,909.545105 848.446533,896.426636 
	C863.394714,883.379333 877.686951,869.685486 890.794861,854.997498 
	C903.506165,840.753967 915.754150,825.978516 926.832397,810.249634 
	C941.170654,789.892151 955.059937,769.325195 966.505554,747.196045 
	C975.178467,730.427734 983.347473,713.429626 990.417419,695.889038 
	C996.237915,681.448242 1000.927185,666.641968 1005.260132,651.750793 
	C1008.747437,639.766052 1011.494629,627.546326 1014.090515,615.287292 
	C1017.039978,601.358459 1018.484741,587.257202 1020.859192,573.277832 
	C1021.884155,567.243774 1021.810120,561.023987 1022.254333,554.889893 
	C1022.369568,553.299194 1021.942200,551.403015 1024.630127,550.954346 
	C1025.000000,708.927002 1025.000000,866.854004 1025.000000,1025.000000 
	C867.645813,1025.000000 710.291565,1025.000000 552.468628,1025.000000 
M980.356323,962.194458 
	C974.956116,958.331482 972.449707,952.283630 969.129883,946.067871 
	C966.385498,950.659546 964.647705,954.758972 961.847839,958.255859 
	C958.849365,962.000793 954.876160,964.300964 950.982971,966.841309 
	C948.273193,968.609497 949.217468,970.338928 951.625244,971.691833 
	C958.323975,975.455444 963.450195,980.728760 966.918152,987.609619 
	C967.362061,988.490356 967.999207,989.316772 970.218384,989.254089 
	C974.378052,979.942444 981.525391,972.752686 993.026611,969.148560 
	C987.973755,966.846619 984.080505,965.378540 980.356323,962.194458 
z"/>
<path fill="#000000" opacity="1.000000" stroke="none" 
	d="
M474.531342,1.000000 
	C474.689117,3.330541 473.045776,3.873857 471.050507,3.942735 
	C468.553284,4.028940 466.056427,4.171592 463.558716,4.188121 
	C454.125427,4.250547 444.997620,6.587519 435.728302,7.742904 
	C427.019226,8.828454 418.501709,10.667686 409.956757,12.368591 
	C402.424652,13.867891 394.917267,15.607111 387.473755,17.653997 
	C379.714752,19.787643 371.997345,22.108280 364.210358,24.089952 
	C355.094666,26.409758 346.258698,29.533072 337.566010,32.901234 
	C323.228912,38.456432 309.112152,44.590866 295.223846,51.261505 
	C275.791931,60.594788 257.109528,71.192711 238.943527,82.764740 
	C227.217133,90.234627 215.973969,98.377571 204.993530,106.874786 
	C195.985184,113.845909 187.474747,121.467278 178.663681,128.649277 
	C162.750366,141.620392 148.857864,156.577927 134.830536,171.329315 
	C122.123062,184.692703 110.678169,199.293549 99.703392,214.214935 
	C80.693474,240.060944 64.310577,267.431274 50.413860,296.327301 
	C40.441616,317.062988 31.711214,338.320648 24.861460,360.264343 
	C20.656635,373.734772 17.147186,387.430573 13.988661,401.237122 
	C10.076585,418.337494 7.950490,435.681305 4.926142,452.897339 
	C3.908926,458.687805 4.617065,464.541351 4.132157,470.351044 
	C3.973840,472.247864 4.029213,474.074677 1.362851,474.850708 
	C1.000000,325.312439 1.000000,175.624878 1.210612,25.746025 
	C6.706958,31.399725 13.891925,32.177574 20.873777,31.587906 
	C32.006470,30.647673 42.375572,25.972218 53.245815,23.566540 
	C55.235058,23.126303 57.499413,22.486271 58.418781,19.485279 
	C52.763725,15.040199 51.420795,9.246483 54.843281,2.673720 
	C53.701908,2.001841 52.850956,1.500920 52.000000,1.000000 
	C192.687561,1.000000 333.375122,1.000000 474.531342,1.000000 
z"/>
<path fill="#000000" opacity="1.000000" stroke="none" 
	d="
M1.000000,551.468628 
	C3.366621,551.183044 3.958369,552.773438 4.058931,554.800293 
	C4.775287,569.238403 6.275803,583.611328 8.516341,597.876465 
	C9.817091,606.158142 12.313596,614.246094 13.802639,622.505737 
	C15.356168,631.123108 17.991261,639.430542 20.104872,647.885437 
	C22.618963,657.942383 25.796480,667.761780 29.073616,677.566956 
	C35.753315,697.552612 44.103695,716.866821 53.496662,735.686401 
	C63.427650,755.583862 74.169167,775.064575 87.003265,793.301147 
	C94.711189,804.253723 101.705940,815.805237 110.313095,825.996460 
	C116.902626,833.798645 123.962387,841.400574 130.401550,849.269836 
	C142.042572,863.496277 155.507477,875.781128 168.607849,888.422485 
	C182.787460,902.105408 198.261581,914.367859 214.225616,926.020813 
	C228.438751,936.395691 242.975159,946.303833 258.101990,955.175720 
	C274.846161,964.996216 292.285583,973.656677 310.032990,981.614746 
	C328.711945,989.990540 347.767517,997.447021 367.408539,1003.162048 
	C376.074341,1005.683655 384.939545,1007.760864 393.705688,1010.000916 
	C404.656525,1012.799316 415.769928,1014.827698 426.787872,1017.127869 
	C432.450287,1018.309998 438.499573,1018.999573 444.305664,1019.934814 
	C452.681610,1021.284119 461.045349,1021.542419 469.434845,1022.071899 
	C471.119507,1022.178345 472.712524,1022.742310 473.850403,1024.656494 
	C335.645782,1025.000000 197.291550,1025.000000 58.548248,1024.668701 
	C58.181423,1020.850708 57.515125,1017.081970 59.334305,1014.044067 
	C61.731567,1010.040710 59.799179,1007.839111 56.962967,1005.663635 
	C48.937775,999.507812 42.692661,991.786438 37.094704,983.448914 
	C32.456921,976.541626 27.635231,969.757812 22.901409,962.914917 
	C21.041039,960.225830 17.958868,958.632324 15.662666,960.734924 
	C10.475930,965.484070 4.410697,969.512695 1.000000,976.000000 
	C1.000000,834.645752 1.000000,693.291565 1.000000,551.468628 
z"/>
<path fill="#000000" opacity="1.000000" stroke="none" 
	d="
M1025.000000,474.531342 
	C1022.553772,474.136780 1022.050354,472.156982 1021.844788,469.853119 
	C1020.918030,459.470245 1020.231995,449.051361 1018.840393,438.728882 
	C1017.635742,429.792633 1016.125427,420.890106 1014.309692,412.019409 
	C1012.766052,404.477905 1010.898682,396.979431 1009.446594,389.405029 
	C1007.904968,381.363739 1005.114075,373.557983 1002.799683,365.669678 
	C999.126099,353.149475 994.583618,340.918427 989.764038,328.815887 
	C984.127441,314.661774 977.578979,300.896851 970.792725,287.246124 
	C960.528015,266.598389 948.960999,246.729477 935.739319,227.839935 
	C929.778809,219.324142 923.757019,210.868134 917.225891,202.742432 
	C910.001526,193.754318 902.230652,185.216110 895.078308,176.237427 
	C882.376709,160.292450 867.524170,146.470184 852.705566,132.831741 
	C836.619019,118.026360 819.471924,104.148552 801.278687,91.837738 
	C783.181580,79.591911 764.592285,68.011383 745.099792,58.161575 
	C726.075500,48.548363 706.659851,39.679375 686.594604,32.271084 
	C670.061829,26.166990 653.240173,21.044271 636.216125,16.697430 
	C625.537781,13.970890 614.719238,11.599528 603.766357,9.891438 
	C594.991333,8.522997 586.157532,7.353812 577.469543,5.797038 
	C570.188660,4.492412 563.012329,4.675284 555.812805,3.970554 
	C554.224182,3.815048 552.321594,4.121060 551.943726,1.407721 
	C688.020874,1.000000 824.041809,1.000000 960.326904,1.232449 
	C960.582214,8.710009 961.975464,15.592407 965.889832,21.812593 
	C966.054443,22.074232 966.390076,22.255812 966.681519,22.405996 
	C973.047668,25.686813 978.037048,30.971090 984.361328,34.373577 
	C989.686035,37.238258 993.780396,41.594597 997.177490,46.667934 
	C999.754211,50.516159 1002.789429,54.056831 1005.609253,57.743092 
	C1007.020508,59.587929 1008.948669,60.492519 1011.191589,60.597919 
	C1016.028442,60.825214 1020.564636,62.187809 1025.000000,64.000000 
	C1025.000000,200.687561 1025.000000,337.375122 1025.000000,474.531342 
z"/>
<path fill="#000000" opacity="1.000000" stroke="none" 
	d="
M319.193329,896.851318 
	C287.969086,880.972595 259.600830,861.503174 233.431503,838.850708 
	C192.316803,803.261414 158.631622,761.653809 132.998962,713.634094 
	C116.380653,682.501587 103.786743,649.807739 95.300697,615.536987 
	C85.478531,575.870361 81.274300,535.600403 82.908623,494.795227 
	C83.868279,470.834991 87.383736,447.174011 92.292221,423.665833 
	C103.960922,367.781067 126.210091,316.490784 158.772995,269.739471 
	C202.614838,206.794739 259.009827,158.243042 327.994110,124.592850 
	C359.855835,109.050873 393.406586,98.527489 428.166687,91.335144 
	C463.134918,84.099754 498.357727,81.462029 533.892639,83.013550 
	C561.385803,84.213959 588.424011,88.843941 615.217834,95.292694 
	C648.928223,103.406082 681.123840,115.357018 711.633545,131.711273 
	C799.854309,179.000870 864.559937,248.373596 906.046021,339.455261 
	C918.588135,366.991119 927.910095,395.579468 933.923523,425.203949 
	C940.531738,457.758820 944.344299,490.646820 942.953430,523.914734 
	C941.952087,547.865784 939.136963,571.616028 934.701660,595.248474 
	C922.482300,660.356262 895.600159,718.842529 855.741516,771.385742 
	C807.552551,834.910339 746.518860,882.064575 672.582153,912.198486 
	C648.339478,922.078918 623.242554,929.173706 597.607544,934.614685 
	C564.018616,941.743835 530.083435,944.247009 495.896606,942.969482 
	C465.897522,941.848450 436.332092,937.278198 407.181580,929.865112 
	C376.730865,922.121399 347.500031,911.285950 319.193329,896.851318 
M639.187805,118.364746 
	C632.466492,116.458893 625.760742,114.495895 619.021118,112.657234 
	C591.940918,105.269356 564.275757,101.160553 536.341919,99.463753 
	C499.955841,97.253532 463.792480,100.024208 428.095062,107.521294 
	C402.318420,112.934860 377.179413,120.578979 352.890656,130.870865 
	C287.893494,158.412125 233.103607,199.758759 189.419571,255.004166 
	C127.709496,333.046326 96.903404,421.979919 98.854919,521.900635 
	C99.512032,555.545593 104.215752,588.533142 113.012238,620.957947 
	C131.498077,689.098938 165.444748,748.536682 214.350952,799.359375 
	C260.787476,847.615662 315.581757,882.977722 378.988953,904.845032 
	C412.381012,916.360962 446.706146,923.343628 481.897675,925.939758 
	C502.014771,927.423889 522.153259,927.157959 542.306030,925.923767 
	C561.296631,924.760681 580.120728,922.296509 598.643127,918.252441 
	C637.233276,909.826904 674.098938,896.559387 708.895569,877.605225 
	C753.121521,853.514648 791.886108,822.663269 824.995605,784.771606 
	C857.991211,747.010315 883.414490,704.687439 901.086853,657.681641 
	C915.920288,618.226868 924.400146,577.418091 926.515442,535.448853 
	C928.168396,502.652710 926.427856,469.947266 920.082764,437.530304 
	C916.624023,419.859467 912.440674,402.428192 906.918091,385.338165 
	C890.485107,334.485474 864.967224,288.621277 830.609192,247.675873 
	C801.889954,213.450241 768.717896,184.343338 730.696838,160.837662 
	C702.122925,143.172470 671.959595,128.881882 639.187805,118.364746 
z"/>
<path fill="#000000" opacity="1.000000" stroke="none" 
	d="
M382.757690,453.000000 
	C382.727234,426.841949 382.695007,401.183929 382.670258,375.525879 
	C382.663727,368.747711 382.674347,368.727448 389.160004,368.726929 
	C472.798676,368.720398 556.437378,368.717834 640.076050,368.722565 
	C646.591370,368.722931 647.076111,369.140839 647.030273,375.370819 
	C646.872314,396.847534 646.536133,418.323944 646.545471,439.800323 
	C646.547729,445.051941 644.268494,446.154785 639.561523,446.142395 
	C584.580322,445.997894 529.598694,446.010712 474.617188,445.969788 
	C467.088318,445.964172 466.983246,445.933624 466.984467,453.343933 
	C466.988220,476.669037 467.224548,499.995422 467.025238,523.318359 
	C466.979126,528.712646 469.557983,529.157288 473.788055,529.146729 
	C514.607483,529.044800 555.427185,529.064270 596.246826,529.044189 
	C604.752197,529.039978 605.005188,529.285034 605.008240,537.641907 
	C605.015564,558.134949 605.048584,578.627991 605.029114,599.121033 
	C605.022827,605.748901 604.565735,606.197021 597.921631,606.198792 
	C562.600159,606.208130 527.278320,606.113770 491.957642,606.273071 
	C487.477844,606.293274 484.419342,604.281982 481.330048,601.680115 
	C466.297272,589.019226 451.172455,576.465698 436.272064,563.651123 
	C433.281097,561.078857 431.340454,562.056396 428.990540,564.032166 
	C415.609009,575.283691 402.222900,586.529724 388.814819,597.749512 
	C387.322388,598.998352 386.049255,600.683899 382.913574,600.864807 
	C381.855713,551.682129 384.163086,502.577576 382.757690,453.000000 
M391.182983,488.886566 
	C390.878540,488.190338 390.800812,487.230713 389.365662,487.596985 
	C389.125977,490.083466 388.072113,492.689178 390.331787,495.119934 
	C392.577148,493.365814 391.649963,491.405426 391.182983,488.886566 
z"/>
<path fill="#000000" opacity="1.000000" stroke="none" 
	d="
M467.179779,689.636169 
	C467.105103,692.524597 468.140198,693.858521 470.718719,693.785828 
	C472.382690,693.738892 474.049591,693.806152 475.715179,693.806641 
	C530.184082,693.823181 584.652954,693.834961 639.121826,693.855896 
	C646.986206,693.858948 647.181396,694.098328 647.176880,702.056885 
	C647.164978,723.211365 647.189636,744.365784 647.161377,765.520264 
	C647.153320,771.529724 646.671692,771.985291 640.536499,771.986511 
	C556.917725,772.002747 473.298920,772.008545 389.680115,772.006531 
	C382.894226,772.006409 382.758667,771.853088 382.752625,764.940979 
	C382.720306,727.962097 382.759644,690.982971 382.587830,654.004822 
	C382.568695,649.881531 384.018585,647.190002 387.091400,644.673035 
	C400.741272,633.492249 414.338074,622.243042 427.775757,610.809082 
	C431.506866,607.634277 434.128113,607.441589 437.949402,610.922363 
	C445.944153,618.204590 454.387817,625.003906 462.798920,631.814087 
	C465.910767,634.333618 467.279144,637.131836 467.232025,641.209839 
	C467.047150,657.198669 467.167542,673.190979 467.179779,689.636169 
z"/>
<path fill="#000000" opacity="1.000000" stroke="none" 
	d="
M288.008667,300.794678 
	C305.758026,301.649170 319.942047,316.448853 319.222382,333.005341 
	C318.961823,339.000183 316.793182,344.449982 313.031769,349.025635 
	C308.501251,354.536804 303.581085,359.732147 298.740173,364.981781 
	C296.298096,367.630066 293.923340,367.729431 291.069855,365.040649 
	C279.817749,354.438293 268.376190,344.037170 257.025421,333.539276 
	C251.362366,328.301697 251.374817,327.216309 256.777954,321.456329 
	C260.416840,317.577148 263.877197,313.520752 267.655426,309.784271 
	C273.137970,304.362335 279.556580,300.762604 288.008667,300.794678 
M271.200653,320.657806 
	C266.278381,326.046814 266.266479,326.059448 271.354980,330.847046 
	C277.160645,336.309418 282.952667,341.787140 288.819061,347.183838 
	C296.025635,353.813385 296.056244,353.780121 302.307678,346.055969 
	C309.693939,336.929657 309.782074,327.357727 302.552338,319.487457 
	C293.190399,309.296112 281.991425,309.539093 271.200653,320.657806 
z"/>
<path fill="#000000" opacity="1.000000" stroke="none" 
	d="
M584.924988,257.955902 
	C589.991821,244.858414 594.855530,232.097702 599.838379,219.383667 
	C601.959229,213.972107 603.489746,213.409073 608.998230,215.552139 
	C615.823669,218.207565 622.864929,220.435822 629.401794,223.677689 
	C641.418762,229.637329 644.133118,243.492935 635.746948,253.543549 
	C632.181030,257.817169 627.315857,259.209167 621.632202,259.753723 
	C621.626343,265.786499 623.637695,271.264435 624.567993,276.901184 
	C624.994263,279.484344 627.121765,282.620178 623.078613,284.125854 
	C620.011475,285.268005 614.494690,281.983582 613.714294,278.624115 
	C612.321533,272.628265 610.860962,266.624939 609.953857,260.546417 
	C609.125977,254.998398 604.406982,255.295319 600.952393,254.225281 
	C597.359009,253.112274 597.561523,257.066589 596.637207,259.069885 
	C595.036499,262.539368 593.783142,266.171722 592.440308,269.756775 
	C591.294678,272.815277 589.081482,273.116882 586.365234,272.237671 
	C583.692749,271.372589 581.268066,270.270355 581.779480,266.758087 
	C582.217468,263.749908 583.546936,261.047211 584.924988,257.955902 
M607.087830,245.450699 
	C611.165466,246.837265 615.068848,248.906158 619.484924,249.022919 
	C624.510193,249.155777 627.477844,246.875992 628.537476,242.222061 
	C629.599548,237.557495 628.238831,233.569138 623.687927,231.974792 
	C606.771301,226.048203 610.577148,223.375259 604.403687,239.440063 
	C604.284302,239.750717 604.213745,240.084991 604.061035,240.377213 
	C602.674255,243.031006 603.833069,244.434113 607.087830,245.450699 
z"/>
<path fill="#000000" opacity="1.000000" stroke="none" 
	d="
M236.370804,368.260406 
	C232.928513,374.161041 229.681381,379.747467 226.597885,385.052399 
	C227.004013,385.878021 227.068008,386.297943 227.302170,386.442719 
	C241.233734,395.057922 237.120804,394.700195 244.685623,382.505493 
	C246.088989,380.243195 247.475845,377.966461 248.761017,375.636108 
	C250.576889,372.343384 252.820877,370.125061 256.714294,372.564789 
	C260.400269,374.874603 259.277954,377.635651 257.432526,380.674225 
	C253.998077,386.329102 250.822495,392.141205 247.480804,397.990051 
	C250.845749,401.282257 254.938232,402.848022 258.581818,405.069824 
	C260.906158,406.487122 261.806122,404.261261 262.706970,402.751709 
	C266.201904,396.895294 269.605713,390.984619 273.081604,385.116730 
	C274.843597,382.142242 276.955841,379.952637 280.733002,382.241882 
	C284.487030,384.517059 283.532227,387.252991 281.738586,390.311188 
	C276.858398,398.632233 272.131653,407.043091 267.292297,415.388275 
	C264.579132,420.066956 262.817383,420.606781 258.024536,417.851501 
	C244.473206,410.061218 230.997253,402.139832 217.470688,394.306274 
	C213.798584,392.179688 212.752426,389.538971 214.974808,385.630188 
	C220.148941,376.529755 225.179276,367.347351 230.231918,358.178314 
	C232.000168,354.969543 234.398346,354.034637 237.670288,355.885101 
	C240.893723,357.708160 240.695908,360.346527 239.271774,363.173553 
	C238.450012,364.804840 237.473068,366.357910 236.370804,368.260406 
z"/>
<path fill="#000000" opacity="1.000000" stroke="none" 
	d="
M406.676086,281.897888 
	C403.313843,282.454407 401.724243,281.023926 400.632385,278.331665 
	C394.436401,263.053650 389.652313,247.277466 384.108917,231.770142 
	C382.868530,228.300323 383.856201,225.645493 387.696960,224.318741 
	C397.447937,220.950333 407.161255,217.472244 416.873962,213.994293 
	C420.514496,212.690689 422.626770,214.162048 423.757263,217.567078 
	C424.861633,220.893372 423.155151,222.321655 420.219391,223.463531 
	C412.517792,226.459091 404.387970,228.337692 396.911560,232.016876 
	C397.092621,235.702927 398.747131,238.673080 399.606140,241.852493 
	C400.317627,244.485962 401.944641,245.092957 404.556610,244.125977 
	C409.859650,242.162674 415.291565,240.545929 420.585724,238.560760 
	C423.908142,237.314941 426.543976,237.532623 427.979034,241.092117 
	C429.522156,244.919678 427.734985,246.989990 424.064331,248.150787 
	C418.672058,249.856003 413.380920,251.882935 407.980530,253.559769 
	C405.056793,254.467606 404.392120,255.981491 405.503174,258.745911 
	C406.857025,262.114563 407.992249,265.571136 409.343475,269.327301 
	C416.212402,268.014160 422.264984,265.260162 428.568787,263.380432 
	C430.800812,262.714844 433.002075,261.946716 435.230164,261.267273 
	C438.731018,260.199768 440.137207,262.562836 441.102661,265.157959 
	C442.159698,267.999390 441.042572,269.947876 438.126221,270.956573 
	C427.761658,274.541504 417.415527,278.179749 406.676086,281.897888 
z"/>
<path fill="#000000" opacity="1.000000" stroke="none" 
	d="
M676.698120,309.924072 
	C678.384766,305.960907 677.015076,303.672424 673.848206,301.723785 
	C669.175598,298.848663 664.572449,295.824341 660.181213,292.540588 
	C657.121643,290.252625 654.814026,290.369873 651.816223,292.772675 
	C648.572693,295.372406 645.116577,298.754822 640.435974,294.634521 
	C636.977234,291.589844 636.710205,289.381226 640.631775,286.774384 
	C649.914551,280.603851 659.377563,274.705078 668.745850,268.662537 
	C673.919617,265.325470 679.114868,262.014618 684.174255,258.509857 
	C687.234619,256.389893 690.039490,255.643372 693.246094,258.184875 
	C696.410217,260.692596 699.599915,262.722046 698.333557,267.869598 
	C694.203430,284.657562 690.425964,301.532227 686.508118,318.372437 
	C685.916138,320.917053 685.044983,323.784790 681.805786,322.870270 
	C678.713318,321.997253 675.291687,320.542328 675.629028,316.205078 
	C675.782959,314.226654 676.285461,312.275299 676.698120,309.924072 
M686.611023,272.310364 
	C686.516846,271.242798 685.746582,270.706940 684.941040,271.170929 
	C678.423584,274.924652 672.064148,278.917877 665.506042,284.356354 
	C670.852539,287.739532 674.686462,291.792542 680.838928,293.709351 
	C682.809082,286.571381 684.686829,279.768433 686.611023,272.310364 
z"/>
<path fill="#000000" opacity="1.000000" stroke="none" 
	d="
M340.219116,293.800018 
	C346.329834,300.595398 353.077515,301.619476 359.389404,296.949188 
	C365.535095,292.401855 366.698029,285.233276 362.074310,277.902283 
	C356.662659,269.322052 350.984894,260.908478 345.351349,252.470108 
	C343.204956,249.255020 342.652496,246.443024 346.396851,243.968384 
	C350.046661,241.556229 352.503693,242.836975 354.680786,246.153809 
	C360.614075,255.193176 366.866821,264.029785 372.589355,273.198669 
	C378.417755,282.537170 377.460938,292.875916 370.612488,301.016907 
	C363.247101,309.772369 351.153076,313.237427 341.378754,309.446320 
	C337.691040,308.016022 334.667694,305.720154 332.487762,302.473633 
	C325.904388,292.669128 319.419647,282.798370 312.901917,272.949829 
	C310.634827,269.524139 311.831909,267.252533 315.053864,265.132629 
	C318.364197,262.954559 320.520660,263.725555 322.511780,266.796478 
	C328.302917,275.728394 334.158234,284.618713 340.219116,293.800018 
z"/>
<path fill="#000000" opacity="1.000000" stroke="none" 
	d="
M462.531799,248.551529 
	C464.337952,245.328217 465.995087,242.441803 467.613922,239.534058 
	C471.588898,232.394226 471.588867,232.384491 466.341858,225.971619 
	C462.546997,221.333603 458.645752,216.779388 454.963013,212.054474 
	C453.378662,210.021774 450.137451,208.095001 453.117950,204.898102 
	C454.969666,202.911865 461.266235,203.099258 463.282532,205.330383 
	C466.850830,209.278839 470.156250,213.464279 473.592499,217.532959 
	C474.757782,218.912766 475.643372,220.602371 478.108093,221.480698 
	C481.590729,216.620911 483.836639,210.920059 486.575012,205.533249 
	C488.142029,202.450653 490.105255,200.480148 493.672455,200.132736 
	C495.757568,199.929642 497.703156,199.730972 499.069336,201.658691 
	C500.316956,203.419067 499.651093,205.177124 498.783997,206.837189 
	C495.242615,213.616974 491.811951,220.461060 488.039276,227.110565 
	C486.363281,230.064560 486.631989,232.177505 488.837128,234.660706 
	C493.809082,240.259628 498.611053,246.012848 503.371552,251.794373 
	C505.176361,253.986298 508.221527,256.119171 505.520294,259.495117 
	C503.579590,261.920563 497.558960,261.772095 495.057465,259.047577 
	C491.235992,254.885391 487.789948,250.380493 484.122223,246.074142 
	C482.764496,244.480011 481.839996,242.342331 478.884399,241.750092 
	C475.384888,248.158783 471.736359,254.624207 468.318634,261.209412 
	C467.017700,263.716064 465.198242,265.017334 462.488159,265.181824 
	C460.498138,265.302612 458.366608,265.579681 456.949493,263.738861 
	C455.451416,261.792938 456.576050,259.923553 457.483276,258.149384 
	C459.073242,255.040039 460.734161,251.966980 462.531799,248.551529 
z"/>
<path fill="#000000" opacity="1.000000" stroke="none" 
	d="
M756.421509,339.431122 
	C754.454895,337.779022 754.820007,335.863708 754.791626,334.061493 
	C754.587952,321.112640 745.535583,313.346039 732.868103,315.263794 
	C723.354919,316.704041 715.190186,326.112122 715.001892,335.850769 
	C714.811584,345.692749 721.202271,352.848755 731.918213,354.792877 
	C736.340881,355.595276 738.179993,358.129456 737.304138,362.628662 
	C736.398254,367.282440 732.520325,366.214600 729.671997,365.865326 
	C709.722351,363.418915 697.060608,338.365845 707.161804,320.983459 
	C713.174927,310.635803 721.963196,303.816772 734.573242,303.746521 
	C747.102661,303.676727 755.936340,310.082123 762.237366,320.441833 
	C764.812012,324.674744 765.897400,329.375916 765.598267,334.307190 
	C765.171021,341.349487 763.266418,342.453918 756.421509,339.431122 
z"/>
<path fill="#000000" opacity="1.000000" stroke="none" 
	d="
M564.709473,204.979004 
	C567.207825,205.539291 569.623962,205.514481 570.710205,207.801773 
	C571.673401,209.830032 571.763672,212.127350 570.705444,214.071747 
	C569.585632,216.129272 567.503296,215.842957 565.394287,215.581757 
	C552.693054,214.008652 552.738464,214.059082 551.267517,227.022079 
	C550.068054,237.592300 548.630676,248.136154 547.498413,258.713074 
	C547.059570,262.811890 544.675293,263.669983 541.281433,263.175110 
	C537.907959,262.683197 535.952271,261.206787 536.475342,257.148590 
	C538.196594,243.794266 539.515442,230.387970 541.247437,217.035172 
	C541.672119,213.761200 540.943115,212.384750 537.588867,212.229172 
	C534.777771,212.098755 531.996521,211.414536 529.184875,211.188889 
	C525.389648,210.884323 523.311707,209.329285 523.769348,205.169998 
	C524.258301,200.725693 527.118530,200.437576 530.612122,200.865921 
	C541.832947,202.241669 553.059082,203.572998 564.709473,204.979004 
z"/>
<path fill="#000000" opacity="1.000000" stroke="none" 
	d="
M799.111328,375.993591 
	C801.876953,381.158325 804.439453,386.014130 807.052429,390.842651 
	C808.726624,393.936432 808.647095,396.542664 805.277344,398.457275 
	C801.892456,400.380463 800.000854,398.572296 798.478699,395.808502 
	C796.953735,393.039673 795.344482,390.309265 793.979736,387.462524 
	C792.653687,384.696564 791.056030,384.414764 788.443787,385.910553 
	C778.345520,391.692871 768.158142,397.319794 758.001648,403.000397 
	C756.119568,404.053040 754.190308,405.026093 752.346619,406.141327 
	C748.832581,408.266785 746.390381,407.203857 744.650940,403.733948 
	C742.890747,400.222656 743.929626,397.652069 747.263123,395.837036 
	C758.659912,389.631744 769.971558,383.261475 781.501587,377.314423 
	C785.611816,375.194397 786.493958,373.049347 783.942566,369.218567 
	C782.569275,367.156555 781.580688,364.832184 780.481201,362.595428 
	C779.119385,359.825165 779.337463,357.405853 782.326111,355.833008 
	C785.144958,354.349487 787.508301,354.881775 789.093567,357.736877 
	C792.403564,363.698273 795.654480,369.692413 799.111328,375.993591 
z"/>
</svg>